<svg width="24" height="24" xmlns="http://www.w3.org/2000/svg"><g fill="none" fill-rule="evenodd"><path d="M24 0v24H0V0z"/><path d="M18.239 4.88A8.498 8.498 0 006.573 1.971a8.502 8.502 0 004.387 15.791c1.36 0 2.731-.345 4.003-1.028L18.728 23h1.167l-4.075-6.782c3.632-2.536 4.736-7.483 2.419-11.338zm-3.424 10.809a7.486 7.486 0 01-3.855 1.073 7.45 7.45 0 01-6.438-3.64C2.391 9.577 3.543 4.959 7.088 2.829a7.487 7.487 0 013.856-1.073 7.448 7.448 0 016.437 3.64 7.457 7.457 0 01.849 5.679 7.449 7.449 0 01-3.415 4.614z" fill="#000" fill-rule="nonzero"/></g></svg>